<svg width="75" height="75" viewBox="0 0 75 75" fill="none" xmlns="http://www.w3.org/2000/svg">
<rect width="75" height="75" rx="6" fill="white"/>
<path d="M11 26V43.9656H13.0252V35.3874H17.8952V33.1575H13.0252V28.2479H19.353V26H11ZM23.0173 29.6507C23.7502 29.6507 24.3412 28.9763 24.3412 28.14C24.3412 27.3038 23.7423 26.7193 23.0173 26.7193C22.2923 26.7193 21.6935 27.3937 21.6935 28.23C21.6935 28.6346 21.8353 29.0123 22.0875 29.309C22.3396 29.6057 22.6706 29.7586 23.0331 29.7586L23.0173 29.6507ZM21.9929 31.9166V43.9656H23.9393V31.9166H21.9299H21.9929ZM31.5437 31.5569C28.8487 31.5569 26.9732 34.2545 26.9732 37.2397C26.9732 40.225 28.8644 42.9046 31.5437 42.9046C32.1012 42.9157 32.6547 42.7944 33.1688 42.5482C33.683 42.3021 34.1467 41.9366 34.5303 41.4749V43.0754C34.5247 44.0371 34.1978 44.96 33.6162 45.6561C33.3224 45.9981 32.9717 46.2697 32.5847 46.455C32.1977 46.6403 31.7822 46.7355 31.3625 46.7351C30.718 46.7118 30.0936 46.4743 29.5658 46.0517L28.5414 48.0569C29.3281 48.6342 30.2367 48.9587 31.1714 48.9963C32.1062 49.0339 33.0326 48.7832 33.8529 48.2705C34.6733 47.7578 35.3574 47.0021 35.833 46.0831C36.3086 45.1641 36.5582 44.1157 36.5555 43.0484V31.8986H34.5303V32.9776C34.1467 32.516 33.683 32.1504 33.1688 31.9043C32.6547 31.6582 32.1012 31.5458 31.5437 31.5569ZM29.0063 37.2397C28.9601 36.6552 29.0582 36.0675 29.2893 35.5431C29.5205 35.0188 29.8756 34.5787 30.3144 34.2724C31.2127 33.643 32.3396 33.643 33.2301 34.2724C34.1205 34.9019 34.6249 36.0528 34.5382 37.2397C34.5844 37.8243 34.4863 38.412 34.2552 38.9363C34.024 39.4607 33.6689 39.9008 33.2301 40.207C32.3317 40.8365 31.2049 40.8365 30.3144 40.207C29.4239 39.5776 28.9196 38.4267 29.0063 37.2397Z" fill="#282828"/>
<path d="M43.425 33.5016C42.8301 33.504 42.2602 33.7728 41.8396 34.2494C41.419 34.7261 41.1817 35.3719 41.1796 36.0459V43.7792H39.1113V31.5591H41.1796V32.5896C41.8074 31.6412 42.8053 31.094 43.8515 31.1123C45.1714 31.0758 46.4027 31.8783 47.0545 33.1824C47.8593 31.9057 49.0182 31.1305 50.2737 31.1123C52.6317 31.1123 54.0964 33.2645 54.1045 35.9274V43.7063H52.0362V35.9547C52.0968 35.4719 52.0341 34.9794 51.8555 34.5357C51.6769 34.0919 51.3899 33.7154 51.0285 33.4506C50.667 33.1858 50.2462 33.0439 49.8158 33.0417C49.3853 33.0394 48.9634 33.1768 48.5997 33.4377C48.2381 33.7049 47.9518 34.0841 47.7749 34.5303C47.598 34.9765 47.5379 35.4709 47.6018 35.9547V43.688H45.614V35.9638C45.6119 35.2898 45.3746 34.644 44.954 34.1674C44.5334 33.6907 43.9635 33.4219 43.3686 33.4195L43.425 33.5016ZM65.1541 32.8632C64.6834 32.3066 64.1171 31.8649 63.4902 31.5653C62.8632 31.2658 62.1888 31.1147 61.5085 31.1214C58.4261 31.1214 56.2774 34.0761 56.2774 37.505C56.2774 40.9339 58.4503 43.8886 61.5085 43.8886C62.1888 43.8953 62.8632 43.7442 63.4902 43.4447C64.1171 43.1452 64.6834 42.7035 65.1541 42.1468V43.533H67.2224V31.3129H65.1541V32.8632ZM58.3135 37.6053C58.2089 36.1462 58.8366 34.7418 59.9391 33.9758C61.0417 33.2098 62.3535 33.2098 63.5285 33.9758C64.0666 34.3543 64.5028 34.8928 64.7894 35.5328C65.0761 36.1728 65.2022 36.8897 65.1541 37.6053C65.2588 39.0645 64.631 40.4688 63.5285 41.2349C62.4259 42.0009 61.1141 42.0009 59.9391 41.2349C59.401 40.8564 58.9648 40.3178 58.6782 39.6778C58.3915 39.0378 58.2654 38.321 58.3135 37.6053Z" fill="#282828"/>
</svg>
