<svg width="40" height="40" viewBox="0 0 40 40" fill="none" xmlns="http://www.w3.org/2000/svg">
<path fill-rule="evenodd" clip-rule="evenodd" d="M19.9999 5.75977C11.9359 5.75977 5.3999 12.2958 5.3999 20.3598C5.3999 26.8078 9.5839 32.2798 15.3839 34.2158C16.1119 34.3518 16.3839 33.8958 16.3839 33.5118C16.3839 33.1598 16.3679 32.0158 16.3679 30.7918C12.3039 31.6718 11.4479 29.0718 11.4479 29.0718C10.7839 27.3838 9.8239 26.9358 9.8239 26.9358C8.4959 26.0318 9.9199 26.0478 9.9199 26.0478C11.3839 26.1518 12.1599 27.5518 12.1599 27.5518C13.4639 29.7838 15.5759 29.1358 16.4079 28.7678C16.5359 27.8238 16.9199 27.1838 17.3359 26.8158C14.0959 26.4478 10.6799 25.1918 10.6799 19.5998C10.6799 18.0078 11.2479 16.7038 12.1839 15.6798C12.0319 15.3118 11.5359 13.8238 12.3279 11.8158C12.3279 11.8158 13.5519 11.4238 16.3439 13.3118C17.5119 12.9918 18.7599 12.8238 19.9999 12.8238C21.2399 12.8318 22.4879 12.9918 23.6559 13.3118C26.4399 11.4238 27.6639 11.8158 27.6639 11.8158C28.4559 13.8238 27.9599 15.3118 27.8079 15.6798C28.7439 16.7038 29.3119 18.0078 29.3119 19.5998C29.3119 25.2078 25.8959 26.4398 22.6479 26.7998C23.1679 27.2558 23.6399 28.1438 23.6399 29.5038C23.6399 31.4558 23.6239 33.0318 23.6239 33.5118C23.6239 33.9038 23.8879 34.3518 24.6239 34.2158C30.4239 32.2798 34.5999 26.8158 34.5999 20.3598C34.5999 12.2958 28.0639 5.75977 19.9999 5.75977Z" fill="white"/>
<path d="M10.9281 26.72C10.8961 26.792 10.7841 26.816 10.6801 26.768C10.5761 26.72 10.5121 26.624 10.5521 26.552C10.5841 26.48 10.6961 26.456 10.8001 26.504C10.9041 26.552 10.9681 26.648 10.9281 26.72Z" fill="white"/>
<path d="M11.5199 27.3837C11.4479 27.4477 11.3119 27.4157 11.2239 27.3197C11.1279 27.2157 11.1119 27.0797 11.1839 27.0157C11.2559 26.9517 11.3839 26.9837 11.4799 27.0797C11.5759 27.1837 11.5919 27.3197 11.5199 27.3837Z" fill="white"/>
<path d="M12.0957 28.2239C12.0077 28.2879 11.8637 28.2319 11.7677 28.0959C11.6797 27.9679 11.6797 27.8079 11.7677 27.7439C11.8557 27.6799 11.9997 27.7359 12.0957 27.8639C12.1917 27.9999 12.1917 28.1599 12.0957 28.2239Z" fill="white"/>
<path d="M12.8878 29.0317C12.8078 29.1197 12.6398 29.0957 12.5118 28.9757C12.3838 28.8557 12.3518 28.6877 12.4318 28.5997C12.5118 28.5117 12.6878 28.5357 12.8078 28.6557C12.9358 28.7837 12.9678 28.9517 12.8878 29.0317Z" fill="white"/>
<path d="M13.9761 29.5037C13.9441 29.6157 13.7761 29.6717 13.6081 29.6237C13.4401 29.5757 13.3361 29.4397 13.3681 29.3277C13.4001 29.2157 13.5681 29.1597 13.7361 29.2077C13.8961 29.2557 14.0081 29.3917 13.9761 29.5037Z" fill="white"/>
<path d="M15.1681 29.592C15.1761 29.712 15.0321 29.816 14.8561 29.816C14.6801 29.824 14.5441 29.72 14.5361 29.6C14.5361 29.48 14.6721 29.376 14.8481 29.376C15.0241 29.376 15.1681 29.472 15.1681 29.592Z" fill="white"/>
<path d="M16.28 29.4078C16.304 29.5278 16.184 29.6478 16.008 29.6798C15.84 29.7118 15.68 29.6398 15.664 29.5198C15.64 29.3998 15.768 29.2798 15.936 29.2478C16.104 29.2158 16.256 29.2878 16.28 29.4078Z" fill="white"/>
</svg>
