<svg width="35" height="35" viewBox="0 0 35 35" fill="none" xmlns="http://www.w3.org/2000/svg">
<path d="M24.5733 0H10.4267C4.67739 0 0 4.67739 0 10.4267V24.5733C0 30.3226 4.67739 35 10.4267 35H24.5733C30.3226 35 35 30.3226 35 24.5733V10.4267C34.9999 4.67739 30.3225 0 24.5733 0ZM31.479 24.5733C31.479 28.3872 28.3872 31.479 24.5733 31.479H10.4267C6.61281 31.479 3.521 28.3872 3.521 24.5733V10.4267C3.521 6.61275 6.61281 3.521 10.4267 3.521H24.5733C28.3872 3.521 31.479 6.61275 31.479 10.4267V24.5733Z" fill="url(#paint0_linear_88_209)"/>
<path d="M17.5 8.44775C12.5086 8.44775 8.44775 12.5086 8.44775 17.4999C8.44775 22.4913 12.5086 26.5522 17.5 26.5522C22.4914 26.5522 26.5522 22.4914 26.5522 17.4999C26.5522 12.5085 22.4914 8.44775 17.5 8.44775ZM17.5 23.0312C14.4452 23.0312 11.9688 20.5548 11.9688 17.5C11.9688 14.4452 14.4452 11.9688 17.5 11.9688C20.5548 11.9688 23.0312 14.4452 23.0312 17.5C23.0312 20.5548 20.5548 23.0312 17.5 23.0312Z" fill="url(#paint1_linear_88_209)"/>
<path d="M26.57 10.6849C27.7679 10.6849 28.7391 9.71375 28.7391 8.51578C28.7391 7.31782 27.7679 6.34668 26.57 6.34668C25.372 6.34668 24.4009 7.31782 24.4009 8.51578C24.4009 9.71375 25.372 10.6849 26.57 10.6849Z" fill="url(#paint2_linear_88_209)"/>
<defs>
<linearGradient id="paint0_linear_88_209" x1="17.5" y1="34.8981" x2="17.5" y2="0.271851" gradientUnits="userSpaceOnUse">
<stop offset="1" stop-color="white"/>
</linearGradient>
<linearGradient id="paint1_linear_88_209" x1="17.5" y1="34.8981" x2="17.5" y2="0.271852" gradientUnits="userSpaceOnUse">
<stop offset="1" stop-color="white"/>
</linearGradient>
<linearGradient id="paint2_linear_88_209" x1="26.57" y1="34.8982" x2="26.57" y2="0.271919" gradientUnits="userSpaceOnUse">
<stop stop-color="white"/>
<stop offset="0.3" stop-color="white"/>
<stop offset="0.6" stop-color="white"/>
<stop offset="1" stop-color="white"/>
</linearGradient>
</defs>
</svg>
