<svg width="76" height="76" viewBox="0 0 76 76" fill="none" xmlns="http://www.w3.org/2000/svg">
<path d="M70.9971 0.0795898H5.5781C2.93145 0.0795898 0.787598 2.22344 0.787598 4.87009V70.2891C0.787598 72.9287 2.93145 75.0796 5.5781 75.0796H70.9971C73.6368 75.0796 75.7876 72.9357 75.7876 70.2891V4.86311C75.7806 2.22344 73.6368 0.0795898 70.9971 0.0795898ZM34.8379 42.3491C34.8379 44.4301 34.6423 46.2109 34.2443 47.6774C33.8463 49.1438 33.2457 50.317 32.4496 51.2388C31.6465 52.1466 30.6479 52.817 29.4538 53.236C28.2597 53.662 26.87 53.8715 25.2848 53.8715C23.8882 53.8715 22.6312 53.648 21.4999 53.2151C19.2862 52.3841 17.5544 50.6033 16.7932 48.3687C16.3463 47.1187 16.1298 45.8058 16.1507 44.479V43.5433H20.6409C20.6409 47.7262 22.1912 49.8212 25.2918 49.8212C26.0879 49.8212 26.7862 49.7304 27.4147 49.5419C28.0362 49.3463 28.5599 48.9972 28.9929 48.4665C29.4259 47.9427 29.7471 47.2165 29.9706 46.2737C30.194 45.331 30.3058 44.1089 30.3058 42.5936V19.1857H34.8518L34.8379 42.3491ZM59.9147 49.1438C59.4398 50.1005 58.7694 50.9455 57.9454 51.6229C57.0236 52.3631 55.9622 52.9287 54.8309 53.2779C53.6088 53.669 52.2401 53.8645 50.7247 53.8645C44.0139 53.8645 40.4733 51.2179 40.1102 45.9106H44.5236C44.5446 48.9064 46.5977 50.4078 50.6759 50.4078C51.5837 50.4078 52.3937 50.31 53.0851 50.1075C53.7834 49.912 54.363 49.6327 54.8239 49.2835C55.7247 48.6341 56.2555 47.5936 56.2485 46.4832C56.2694 45.9944 56.1717 45.5126 55.9761 45.0656C55.7946 44.7025 55.4384 44.3882 54.9147 44.1089C54.2164 43.7667 53.4901 43.4944 52.7359 43.2989C51.5278 42.9497 50.3127 42.6145 49.0907 42.3003C47.6312 41.9371 46.3672 41.574 45.3127 41.2109C44.377 40.9176 43.4971 40.4776 42.701 39.898C42.0376 39.4022 41.5139 38.7458 41.1856 37.9916C40.8574 37.2304 40.6968 36.2737 40.6968 35.1215C40.6968 34.1089 40.9133 33.1662 41.3393 32.2933C41.7722 31.4274 42.3798 30.6732 43.1898 30.0307C43.9859 29.3952 44.9566 28.8994 46.0879 28.5363C47.3169 28.1592 48.6018 27.9776 49.8868 27.9916C56.3742 27.9916 59.6773 30.2961 59.775 34.912H55.4314C55.2778 32.6075 53.539 31.4483 50.215 31.4483C49.4747 31.4483 48.7974 31.5251 48.1619 31.6718C47.5264 31.8184 46.9887 32.0279 46.5208 32.3072C46.053 32.5796 45.6968 32.9218 45.4314 33.3268C45.1731 33.7458 45.0334 34.2346 45.0474 34.7304C45.0474 35.2123 45.1102 35.6103 45.2289 35.9176C45.3477 36.2318 45.634 36.5181 46.0949 36.7835C46.5488 37.0489 47.2261 37.3142 48.12 37.5726C49.0139 37.831 50.2359 38.1522 51.7862 38.5293C53.2806 38.8924 54.5865 39.2626 55.6898 39.6536C56.7862 40.0447 57.701 40.5126 58.4412 41.0642C59.1745 41.6089 59.7122 42.2863 60.0683 43.0754C60.4175 43.8645 60.599 44.8561 60.599 46.0433C60.613 47.1676 60.3756 48.1941 59.9147 49.1438Z" fill="white"/>
</svg>
