<svg width="35" height="35" viewBox="0 0 35 35" fill="none" xmlns="http://www.w3.org/2000/svg">
<path d="M32.5 2.1875H2.49219C1.11719 2.1875 0 3.17871 0 4.39551V30.6045C0 31.8213 1.11719 32.8125 2.49219 32.8125H32.5C33.875 32.8125 35 31.8213 35 30.6045V4.39551C35 3.17871 33.875 2.1875 32.5 2.1875ZM10.5781 28.4375H5.39062V13.8223H10.5859V28.4375H10.5781ZM7.98438 11.8262C6.32031 11.8262 4.97656 10.6436 4.97656 9.19434C4.97656 7.74512 6.32031 6.5625 7.98438 6.5625C9.64062 6.5625 10.9922 7.74512 10.9922 9.19434C10.9922 10.6504 9.64844 11.8262 7.98438 11.8262ZM30.0234 28.4375H24.8359V21.3281C24.8359 19.6328 24.7969 17.4521 22.1406 17.4521C19.4375 17.4521 19.0234 19.2979 19.0234 21.2051V28.4375H13.8359V13.8223H18.8125V15.8184H18.8828C19.5781 14.6699 21.2734 13.46 23.7969 13.46C29.0469 13.46 30.0234 16.4883 30.0234 20.4258V28.4375Z" fill="white"/>
</svg>
