<svg width="76" height="76" viewBox="0 0 76 76" fill="none" xmlns="http://www.w3.org/2000/svg">
<rect x="0.787598" y="0.0795898" width="75" height="75" rx="6" fill="white"/>
<path d="M31.956 37.505C31.956 33.7924 34.7995 30.7767 38.3002 30.7767C41.8009 30.7767 44.6445 33.7924 44.6445 37.505C44.6445 41.2177 41.8009 44.2333 38.3002 44.2333C34.7995 44.2333 31.956 41.2177 31.956 37.505ZM73.7876 37.505C73.7876 42.1291 68.644 46.8067 60.3535 49.7152C59.9238 49.8626 59.4814 50.0101 59.0265 50.1575C59.1908 50.841 59.3298 51.5112 59.4562 52.1679C60.2271 56.3229 60.3535 60.1829 59.81 63.3192C59.2287 66.6566 57.9143 69.0289 56.0186 70.195C55.0708 70.7847 53.946 71.0796 52.6949 71.0796C49.2573 71.0796 44.8972 68.8815 40.3476 64.7266C39.703 64.1368 39.0711 63.5203 38.4266 62.8635C37.9337 63.3729 37.4409 63.8554 36.948 64.3111C33.9401 67.0989 30.8438 69.1361 28.0129 70.195C26.5343 70.7579 25.1441 71.0394 23.9056 71.0394C22.6165 71.0394 21.4791 70.7445 20.5186 70.1548C16.8915 67.9299 15.6278 61.5232 17.1569 53.0123C17.3086 52.1411 17.4982 51.2431 17.713 50.3317C17.0432 50.1307 16.3987 49.9162 15.7794 49.6884C12.0007 48.3213 8.79062 46.4985 6.50315 44.421C4.07667 42.2229 2.7876 39.8238 2.7876 37.505C2.7876 33.0552 7.38781 28.6993 15.1096 25.8578C15.9563 25.5496 16.841 25.2547 17.7509 24.9732C17.5487 24.1288 17.3718 23.2978 17.2201 22.4803C16.4745 18.4326 16.3355 14.7199 16.8157 11.731C17.3465 8.47411 18.5977 6.15539 20.4555 5.01613C24.2216 2.69741 30.629 5.08315 37.1502 11.2351C37.542 11.6104 37.9337 11.9991 38.3381 12.4012C38.9321 11.7981 39.5261 11.2217 40.1075 10.6722C43.0395 7.9648 46.0094 5.98115 48.6886 4.93571C51.608 3.79646 54.1356 3.79646 55.9807 4.92231C59.7595 7.22763 61.0106 14.3044 59.2413 23.3649C59.1402 23.9144 59.0138 24.4639 58.8875 25.0268C59.671 25.2681 60.4293 25.5227 61.1623 25.7908C64.8399 27.1311 67.9362 28.8735 70.1352 30.8035C72.5238 32.9212 73.7876 35.2399 73.7876 37.505ZM40.4613 14.6931C42.4834 16.9984 44.5055 19.679 46.4517 22.6277C49.8008 22.9628 52.9982 23.4989 55.9555 24.2227C56.0692 23.7133 56.1829 23.2174 56.2714 22.7215C57.927 14.1838 56.4989 8.95662 54.4642 7.71014C53.4279 7.0802 51.747 7.16061 49.7249 7.95139C47.3869 8.8628 44.7456 10.6454 42.0916 13.0981C41.5482 13.5941 41.0048 14.1302 40.4613 14.6931ZM21.4665 48.013C23.4886 48.4821 25.6749 48.8574 28.0003 49.1255C27.242 47.8656 26.4964 46.5789 25.776 45.2654C25.0683 43.9787 24.3985 42.6786 23.7666 41.3785C22.8693 43.6302 22.0857 45.8685 21.4665 48.013ZM25.776 29.9055C26.4838 28.6188 27.2041 27.3456 27.9498 26.1125C25.7002 26.4073 23.5391 26.8094 21.5044 27.2785C22.1237 29.3962 22.8819 31.5809 23.7666 33.8058C24.3985 32.5057 25.0683 31.2056 25.776 29.9055ZM28.4047 43.657C29.5042 45.6675 30.6669 47.6243 31.8802 49.4873C33.9401 49.6214 36.0886 49.7018 38.3002 49.7018C40.5245 49.7018 42.6982 49.6214 44.7961 49.4605C45.9462 47.6243 47.0836 45.6809 48.2084 43.6302C49.3205 41.593 50.3442 39.5423 51.2668 37.5318C50.3442 35.5616 49.3332 33.5511 48.2084 31.5005C47.1089 29.4766 45.9588 27.5466 44.7835 25.697C42.673 25.5227 40.4992 25.4423 38.3002 25.4423C36.1265 25.4423 33.9528 25.5361 31.8296 25.7104C30.6416 27.56 29.4789 29.5034 28.3921 31.5139C27.3052 33.5109 26.2942 35.5482 25.3716 37.5855C26.2942 39.6093 27.3052 41.6466 28.4047 43.657ZM48.6634 49.0718C51.0014 48.777 53.2257 48.3749 55.2856 47.879C54.6537 45.7747 53.8575 43.5498 52.8971 41.2445C52.2525 42.5714 51.5574 43.9117 50.8371 45.2386C50.1167 46.5521 49.3964 47.8388 48.6634 49.0718ZM55.134 27.3187C53.0866 26.8228 50.9129 26.4207 48.6507 26.1125C49.3837 27.3321 50.1041 28.592 50.8118 29.8787C51.5322 31.2056 52.2146 32.5191 52.8592 33.8058C53.7564 31.5809 54.5274 29.3962 55.134 27.3187ZM34.1171 22.3328C35.4946 22.2658 36.8848 22.2256 38.2876 22.2256C39.7157 22.2256 41.1185 22.2658 42.5213 22.3328C41.1438 20.3894 39.741 18.5934 38.3381 16.985C36.9101 18.6068 35.4946 20.4028 34.1171 22.3328ZM20.2027 21.8637C20.3417 22.6277 20.506 23.3917 20.6956 24.1824C23.6402 23.4721 26.8376 22.9494 30.1867 22.6143C32.1329 19.7058 34.1676 17.0386 36.2276 14.6797C35.8737 14.3178 35.5199 13.9693 35.166 13.6477C28.9987 7.85757 24.0194 6.55748 21.9846 7.80396C20.9483 8.4339 20.1774 10.0289 19.8109 12.2806C19.3939 14.8808 19.5202 18.2047 20.2027 21.8637ZM22.0226 37.5989C20.6197 34.3553 19.4444 31.152 18.5598 28.0827C17.713 28.3374 16.9042 28.6054 16.1206 28.9003C9.01811 31.5273 5.83334 35.1193 5.83334 37.5184C5.83334 40.0114 9.25823 43.9385 16.7652 46.6593C17.3339 46.8603 17.9152 47.0614 18.5218 47.249C19.4191 44.1261 20.5945 40.8826 22.0226 37.5989ZM36.3034 60.5716C34.2182 58.2127 32.1708 55.5187 30.2119 52.5834C26.7491 52.2886 23.5391 51.7927 20.6577 51.1091C20.4555 51.9669 20.2912 52.7979 20.1395 53.6021C18.7367 61.4428 20.089 66.1607 22.0352 67.3535C24.0699 68.6 28.9861 67.4206 34.9638 61.8717C35.3935 61.4696 35.8485 61.0273 36.3034 60.5716ZM42.5845 52.8113C41.1817 52.8783 39.741 52.9185 38.3002 52.9185C36.8848 52.9185 35.5072 52.8917 34.155 52.8381C35.5578 54.7949 36.9859 56.6043 38.4266 58.2529C39.8041 56.6311 41.207 54.8217 42.5845 52.8113ZM56.4989 52.7979C56.3851 52.1947 56.2588 51.5916 56.1071 50.9617C53.1751 51.6854 49.9398 52.2081 46.5023 52.5298C44.5434 55.5455 42.5339 58.2395 40.5498 60.5448C41.1438 61.1614 41.7504 61.7377 42.3317 62.2738C48.0315 67.4742 52.5558 68.6 54.5147 67.3938C56.5494 66.1607 58.0407 61.0541 56.4989 52.7979ZM70.7671 37.505C70.7671 36.2318 69.8572 34.7306 68.2016 33.2697C66.2933 31.5809 63.5129 30.0396 60.1892 28.8199C59.5067 28.5786 58.799 28.3374 58.0786 28.1095C57.2066 31.0984 56.0439 34.2749 54.6158 37.5184C56.1071 40.8558 57.3203 44.0591 58.205 47.048C58.6094 46.914 59.0138 46.7799 59.4056 46.6459C67.2032 43.9117 70.7671 39.9846 70.7671 37.505Z" fill="#282828"/>
</svg>
