<svg width="76" height="76" viewBox="0 0 76 76" fill="none" xmlns="http://www.w3.org/2000/svg">
<path d="M31.7569 41.2697C31.1858 41.9085 30.2141 43.5549 29.7592 44.9325C28.8552 47.669 29.246 50.4499 29.8875 50.618C30.6345 50.8144 31.8621 47.1562 32.4487 45.7263C32.8164 44.8299 34.2477 40.8536 33.9342 40.3223C33.6881 39.9052 32.6763 40.2417 31.7569 41.2697Z" fill="white"/>
<path d="M21.6641 47.0763L21.6657 47.0792C21.6657 47.0792 21.6246 47.1019 21.5519 47.1434C21.1138 47.4059 20.7529 47.623 20.5075 47.7707C19.4289 48.4447 17.8029 49.5388 16.5434 50.7269C14.4769 52.6763 14.0454 55.3805 15.1348 56.0124C16.1437 56.597 18.4963 55.9029 20.1802 54.0657C21.948 52.1378 22.6769 49.6947 21.925 46.9197C21.8355 46.974 21.749 47.0256 21.6641 47.0763Z" fill="white"/>
<path d="M43.8711 48.5085C43.3717 49.1296 42.104 50.4934 42.104 50.4934C42.104 50.4934 41.9237 50.6648 42.0013 50.7112C42.1069 50.774 42.3352 50.6921 42.5839 50.5625C43.2879 50.1187 44.8661 49.0158 44.8698 47.3816C44.8698 47.3345 44.8681 47.2872 44.8652 47.2391C44.4981 47.7187 44.1612 48.1474 43.8711 48.5085Z" fill="white"/>
<path d="M70.5244 0.0795898H6.05076C3.14385 0.0795898 0.787598 2.43617 0.787598 5.34275V69.8164C0.787598 72.7233 3.14385 75.0796 6.05076 75.0796H70.5244C73.431 75.0796 75.7876 72.7233 75.7876 69.8164V5.34275C75.7876 2.43617 73.431 0.0795898 70.5244 0.0795898ZM67.5116 47.3602C67.4152 49.8128 65.1639 50.8227 64.7455 50.8934C64.4415 50.9444 64.2767 50.9539 64.2333 50.7154C64.2034 50.5513 64.3119 50.475 64.6685 50.2546C65.0251 50.0339 66.0915 49.3033 66.282 47.975C66.4725 46.6464 65.4754 43.472 60.3915 42.8783C58.0218 42.6016 56.1613 42.9345 54.7241 43.5329C54.9912 44.2247 55.1879 44.9444 55.2182 45.6697C55.2843 47.2628 54.1846 48.4401 53.0412 49.2812C52.3751 49.771 51.6613 50.099 51.0675 50.2957C50.5906 50.4977 49.956 50.7036 49.507 50.6128C48.5152 50.4128 47.9866 49.5329 48.6616 47.5908C49.0267 46.5408 50.0784 44.9398 51.7734 43.5625C51.3856 42.7674 50.955 41.9566 50.7366 41.2135C50.305 39.7447 50.1728 38.8569 50.1728 38.8569C50.1728 38.8569 48.7744 41.7536 46.9715 44.3891C46.8672 44.5414 46.7629 44.6921 46.6593 44.8414C47.0136 45.6628 47.2938 46.5332 47.3304 47.4112C47.3965 49.0046 46.7067 50.2072 45.5633 51.0483C44.9435 51.5039 44.283 51.8191 43.7162 52.0194C43.3527 52.1776 42.6152 52.4375 41.5679 52.5079C40.9935 52.5467 40.4429 52.5105 40.1336 52.2776C39.7103 51.9582 39.6586 51.5618 39.8777 51.0227C40.0636 50.5648 41.4524 48.9793 42.6182 47.5908C42.9396 47.2082 43.2465 46.8161 43.5202 46.4523C43.5162 46.4434 43.5142 46.4381 43.5142 46.4381C43.5142 46.4381 43.7251 46.1651 44.0679 45.6898C43.6419 44.774 43.1024 43.8187 42.8485 42.9552C42.4169 41.4868 42.285 40.599 42.285 40.599C42.285 40.599 40.8682 44.2309 39.3909 47.1299C38.2475 49.374 37.4853 50.7349 37.1415 51.3312C37.1389 51.347 37.1369 51.3559 37.1369 51.3559C37.1369 51.3559 37.0866 51.4424 36.9978 51.5779C36.9544 51.652 36.932 51.6888 36.932 51.6888C36.932 51.6888 36.9317 51.6855 36.9304 51.6793C36.5471 52.2447 35.6873 53.3536 34.832 53.3536C32.485 53.3536 33.3465 48.5901 33.3465 48.5901C33.3465 48.5901 32.6603 50.3536 31.8866 51.8684C31.256 53.1036 30.6833 54.148 29.4277 54.148C29.0656 54.148 28.4942 54.1375 28.0192 53.6872C26.9406 52.6641 26.1159 50.0641 26.2777 48.0526C26.4152 46.3401 26.6797 45.1546 27.0406 44.1658C26.3955 44.5168 25.6521 44.9316 24.8948 45.3763C24.5063 45.6043 24.1146 45.8355 23.7304 46.0631C23.7425 46.0862 23.7557 46.1089 23.7679 46.1319C24.7323 47.995 24.9889 52.0766 22.8873 55.2115C20.7853 58.3467 16.8738 60.2546 13.0623 59.1937C11.832 58.8513 9.97378 56.3089 11.5767 52.7651C12.9899 49.6411 18.6399 46.6845 20.1281 45.9483C20.2531 45.8793 20.3902 45.8036 20.5369 45.7224C17.5692 43.127 10.157 39.6253 9.11852 34.248C8.82608 32.7345 9.53562 29.1128 13.9846 24.951C17.7264 21.451 22.9307 18.7704 27.7379 17.0628C35.8156 14.1931 44.3501 15.8852 45.6626 21.0325C46.9534 26.0934 42.5593 32.1483 36.9323 34.325C31.9086 36.2684 27.754 35.9605 26.0475 35.4006C24.1077 34.7641 22.9698 33.4842 22.6925 32.7625C22.5837 32.4796 22.3958 32.0049 22.6925 31.8404C22.8748 31.7398 22.9475 31.7638 23.4353 32.3016C23.8988 32.8125 25.7619 34.1839 29.3004 33.7872C38.5873 32.746 44.181 25.5299 42.4136 21.6474C41.1764 18.9296 34.0175 17.7033 25.0748 22.1595C14.1577 27.5993 13.5659 32.0839 13.4725 33.7872C13.2165 38.472 19.2544 40.9368 22.5205 44.4217C22.5633 44.4674 22.6047 44.5135 22.6465 44.5599C23.2586 44.2227 23.904 43.8674 24.5366 43.5197C26.1836 42.6148 27.736 41.7674 28.4616 41.3717C29.6113 39.702 31.9445 37.8595 33.6287 37.8595C36.3221 37.8595 35.3958 41.727 35.3958 41.727C35.3958 41.727 35.4504 41.5493 35.5241 41.5477C35.5998 41.546 35.8962 41.0381 36.7277 41.3427C37.5833 41.6562 37.3883 42.2552 37.3935 42.3161C37.4037 42.4342 36.384 45.8733 35.9593 48.0786C35.7567 49.1306 35.8748 49.897 35.9337 49.897C36.0179 49.897 36.1879 49.6296 36.3468 49.3418C36.3445 49.3365 36.3432 49.3339 36.3432 49.3339C36.3432 49.3339 36.4623 49.1171 36.6626 48.7247C36.6873 48.673 36.7017 48.6424 36.7017 48.6424C36.7017 48.6424 36.7024 48.6437 36.7031 48.6451C36.9369 48.1842 37.2685 47.5099 37.6491 46.6704C38.3965 45.0224 41.2494 38.6658 41.4909 37.9622C41.732 37.2589 41.8587 36.5316 41.9774 36.2207C42.0958 35.9095 43.104 35.6743 44.2823 35.6829C45.461 35.6914 45.5804 36.1931 45.5886 36.2977C45.5968 36.402 45.0271 37.7974 44.8968 38.7819C44.7669 39.7671 44.8915 40.2602 44.9994 41.0872C45.0702 41.6296 45.409 42.3158 45.8077 43.0941C47.0264 41.1003 49.1725 37.2895 49.379 36.221C49.5202 35.4908 49.7468 34.7908 49.8656 34.4796C49.984 34.1684 50.9922 33.9332 52.1705 33.9418C53.3488 33.9503 53.4682 34.452 53.4767 34.5566C53.485 34.6608 52.9152 36.0556 52.785 37.0408C52.655 38.0256 52.7797 38.5187 52.8876 39.3457C52.9797 40.0539 53.5287 41.0066 54.0715 42.0895C55.555 41.3582 57.3244 40.8677 59.3675 40.8569C64.6511 40.827 67.634 44.247 67.5116 47.3602Z" fill="white"/>
<path d="M50.8473 46.8947C50.2374 48.2237 50.2065 48.6503 50.3917 48.7822C51.2789 48.4632 52.7457 47.6954 52.7578 45.6395C52.7598 45.3313 52.6927 45.0007 52.5828 44.6553C51.6328 45.4947 51.0865 46.373 50.8473 46.8947Z" fill="white"/>
</svg>
