<svg width="76" height="76" viewBox="0 0 76 76" fill="none" xmlns="http://www.w3.org/2000/svg">
<path d="M0.787598 6.07959C0.787598 2.76588 3.47389 0.0795898 6.7876 0.0795898H69.7876C73.1013 0.0795898 75.7876 2.76588 75.7876 6.07959V69.0796C75.7876 72.3933 73.1013 75.0796 69.7876 75.0796H6.7876C3.47389 75.0796 0.787598 72.3933 0.787598 69.0796V6.07959Z" fill="white"/>
<path d="M31.0741 27.5007H34.4202V33.2242H25.3737V58.6882L25.1339 58.753C24.8069 58.8394 20.5017 58.8394 19.5752 58.7422L18.8341 58.6774V33.2242H9.7876V27.5007L12.6541 27.4684C14.2236 27.4468 18.2564 27.4468 21.6134 27.4684C24.9704 27.49 29.2212 27.5007 31.0741 27.5007ZM56.6113 55.9885C55.2816 57.3816 53.8538 58.1591 51.4777 58.7962C50.4423 59.077 50.2679 59.0878 47.9354 59.077C45.6029 59.0662 45.4177 59.0662 44.2841 58.7746C41.3522 58.0295 38.987 56.5716 37.3739 54.509C36.9161 53.9259 36.1641 52.7164 36.1641 52.5652C36.1641 52.522 36.2731 52.4248 36.4148 52.36C36.5565 52.2952 36.8507 52.1117 37.0905 51.9713C37.3303 51.8309 37.7663 51.5717 38.0606 51.4205C38.3549 51.2693 39.205 50.7726 39.9462 50.3298C40.6873 49.8871 41.3631 49.5307 41.4394 49.5307C41.5157 49.5307 41.6574 49.6819 41.7664 49.8655C42.4203 50.9562 43.9462 52.3492 45.0253 52.8244C45.6901 53.1052 47.1615 53.4183 47.87 53.4183C48.524 53.4183 49.7229 53.1376 50.366 52.846C51.0526 52.5328 51.4014 52.2196 51.8156 51.5933C52.099 51.1505 52.1317 51.0318 52.1208 50.1894C52.1208 49.4119 52.0772 49.1959 51.8592 48.8396C51.2488 47.8461 50.4205 47.3277 47.0635 45.859C43.5975 44.3364 42.0388 43.4293 40.7745 42.209C39.8372 41.3019 39.6519 41.0535 39.0633 39.9196C38.3004 38.4617 38.2023 37.9866 38.1914 35.816C38.1805 34.2933 38.2132 33.7966 38.3767 33.2782C38.6055 32.5007 39.3467 30.9996 39.6846 30.6217C40.3821 29.8117 40.6328 29.5634 41.1233 29.1638C42.6056 27.9543 44.9163 27.1552 47.1289 27.0796C47.3795 27.0796 48.2079 27.1228 48.9817 27.1768C51.2052 27.3604 52.7202 27.9003 54.1807 29.0558C55.2816 29.9197 56.9492 31.9499 56.7857 32.2199C56.6767 32.3819 52.3279 35.2544 52.0445 35.3408C51.8701 35.3948 51.7502 35.33 51.5104 35.0492C50.0281 33.289 49.4286 32.911 47.9899 32.8247C46.9654 32.7599 46.4204 32.8786 45.7337 33.3322C45.0144 33.8074 44.6656 34.5309 44.6656 35.5352C44.6765 37.0039 45.2433 37.695 47.3359 38.7209C48.6875 39.3796 49.8428 39.9196 49.93 39.9196C50.0608 39.9196 52.8619 41.3019 53.5922 41.7338C56.9928 43.71 58.377 45.7402 58.7367 49.2391C58.9983 51.8741 58.2462 54.2822 56.6113 55.9885Z" fill="#282828"/>
</svg>
