<svg width="76" height="76" viewBox="0 0 76 76" fill="none" xmlns="http://www.w3.org/2000/svg">
<rect x="0.787598" y="0.0795898" width="75" height="75" rx="6" fill="white"/>
<path d="M11.3126 46.0796L3.6626 28.5796H7.1876L14.0126 44.4046H11.9876L18.8876 28.5796H22.1376L14.5126 46.0796H11.3126ZM21.4558 46.0796V32.7296H24.5808V46.0796H21.4558ZM23.0308 30.5296C22.4474 30.5296 21.9641 30.3463 21.5808 29.9796C21.2141 29.6129 21.0308 29.1713 21.0308 28.6546C21.0308 28.1213 21.2141 27.6796 21.5808 27.3296C21.9641 26.9629 22.4474 26.7796 23.0308 26.7796C23.6141 26.7796 24.0891 26.9546 24.4558 27.3046C24.8391 27.6379 25.0308 28.0629 25.0308 28.5796C25.0308 29.1296 24.8474 29.5963 24.4808 29.9796C24.1141 30.3463 23.6308 30.5296 23.0308 30.5296ZM31.3323 46.2546C29.8657 46.2546 28.7323 45.8796 27.9323 45.1296C27.1323 44.3629 26.7323 43.2379 26.7323 41.7546V29.7796H29.8573V41.6796C29.8573 42.3129 30.0157 42.8046 30.3323 43.1546C30.6657 43.5046 31.124 43.6796 31.7073 43.6796C32.4073 43.6796 32.9907 43.4963 33.4573 43.1296L34.3323 45.3546C33.9657 45.6546 33.5157 45.8796 32.9823 46.0296C32.449 46.1796 31.899 46.2546 31.3323 46.2546ZM24.5323 35.3296V32.8296H33.4323V35.3296H24.5323ZM40.3636 46.2546C38.8802 46.2546 37.5802 45.9629 36.4636 45.3796C35.3636 44.7796 34.5052 43.9629 33.8886 42.9296C33.2886 41.8963 32.9886 40.7213 32.9886 39.4046C32.9886 38.0713 33.2802 36.8963 33.8636 35.8796C34.4636 34.8463 35.2802 34.0379 36.3136 33.4546C37.3636 32.8713 38.5552 32.5796 39.8886 32.5796C41.1886 32.5796 42.3469 32.8629 43.3636 33.4296C44.3802 33.9963 45.1802 34.7963 45.7636 35.8296C46.3469 36.8629 46.6386 38.0796 46.6386 39.4796C46.6386 39.6129 46.6302 39.7629 46.6136 39.9296C46.6136 40.0963 46.6052 40.2546 46.5886 40.4046H35.4636V38.3296H44.9386L43.7136 38.9796C43.7302 38.2129 43.5719 37.5379 43.2386 36.9546C42.9052 36.3713 42.4469 35.9129 41.8636 35.5796C41.2969 35.2463 40.6386 35.0796 39.8886 35.0796C39.1219 35.0796 38.4469 35.2463 37.8636 35.5796C37.2969 35.9129 36.8469 36.3796 36.5136 36.9796C36.1969 37.5629 36.0386 38.2546 36.0386 39.0546V39.5546C36.0386 40.3546 36.2219 41.0629 36.5886 41.6796C36.9552 42.2963 37.4719 42.7713 38.1386 43.1046C38.8052 43.4379 39.5719 43.6046 40.4386 43.6046C41.1886 43.6046 41.8636 43.4879 42.4636 43.2546C43.0636 43.0213 43.5969 42.6546 44.0636 42.1546L45.7386 44.0796C45.1386 44.7796 44.3802 45.3213 43.4636 45.7046C42.5636 46.0713 41.5302 46.2546 40.3636 46.2546ZM50.2903 46.3296C49.1737 46.3296 48.1403 46.1129 47.1903 45.6796C46.257 45.2463 45.4903 44.6213 44.8903 43.8046L46.7403 41.5796C47.2237 42.2463 47.7487 42.7463 48.3153 43.0796C48.8987 43.4129 49.532 43.5796 50.2153 43.5796C52.032 43.5796 52.9403 42.5046 52.9403 40.3546V31.3046H46.7153V28.5796H56.1903V40.1796C56.1903 42.2463 55.682 43.7879 54.6653 44.8046C53.6653 45.8213 52.207 46.3296 50.2903 46.3296ZM62.1989 46.2546C61.0823 46.2546 60.0073 46.1129 58.9739 45.8296C57.9573 45.5296 57.1489 45.1713 56.5489 44.7546L57.7489 42.3796C58.3489 42.7629 59.0656 43.0796 59.8989 43.3296C60.7323 43.5796 61.5656 43.7046 62.3989 43.7046C63.3823 43.7046 64.0906 43.5713 64.5239 43.3046C64.9739 43.0379 65.1989 42.6796 65.1989 42.2296C65.1989 41.8629 65.0489 41.5879 64.7489 41.4046C64.4489 41.2046 64.0573 41.0546 63.5739 40.9546C63.0906 40.8546 62.5489 40.7629 61.9489 40.6796C61.3656 40.5963 60.7739 40.4879 60.1739 40.3546C59.5906 40.2046 59.0573 39.9963 58.5739 39.7296C58.0906 39.4463 57.6989 39.0713 57.3989 38.6046C57.0989 38.1379 56.9489 37.5213 56.9489 36.7546C56.9489 35.9046 57.1906 35.1713 57.6739 34.5546C58.1573 33.9213 58.8323 33.4379 59.6989 33.1046C60.5823 32.7546 61.6239 32.5796 62.8239 32.5796C63.7239 32.5796 64.6323 32.6796 65.5489 32.8796C66.4656 33.0796 67.2239 33.3629 67.8239 33.7296L66.6239 36.1046C65.9906 35.7213 65.3489 35.4629 64.6989 35.3296C64.0656 35.1796 63.4323 35.1046 62.7989 35.1046C61.8489 35.1046 61.1406 35.2463 60.6739 35.5296C60.2239 35.8129 59.9989 36.1713 59.9989 36.6046C59.9989 37.0046 60.1489 37.3046 60.4489 37.5046C60.7489 37.7046 61.1406 37.8629 61.6239 37.9796C62.1073 38.0963 62.6406 38.1963 63.2239 38.2796C63.8239 38.3463 64.4156 38.4546 64.9989 38.6046C65.5823 38.7546 66.1156 38.9629 66.5989 39.2296C67.0989 39.4796 67.4989 39.8379 67.7989 40.3046C68.0989 40.7713 68.2489 41.3796 68.2489 42.1296C68.2489 42.9629 67.9989 43.6879 67.4989 44.3046C67.0156 44.9213 66.3239 45.4046 65.4239 45.7546C64.5239 46.0879 63.4489 46.2546 62.1989 46.2546Z" fill="black"/>
</svg>
